<svg t="1587112601954" class="icon" viewBox="0 0 1024 1024" version="1.1" xmlns="http://www.w3.org/2000/svg" p-id="2647" width="48" height="48"><path d="M819.658544 327.894935 542.141996 177.019693c-9.402137-5.126764-19.72218-7.668657-30.042223-7.668657-10.340509 0-20.682042 2.541893-30.063713 7.668657l-277.559527 150.937664c-20.911262 11.357675-33.982976 33.613562-33.982976 57.870012l0 292.644083c0 24.235984 13.071713 46.512337 34.004465 57.890478l277.538037 150.875243c9.381671 5.105275 19.72218 7.648191 30.042223 7.648191 10.340509 0 20.640086-2.541893 30.063713-7.648191l277.538037-150.937664c20.912285-11.399631 33.983999-33.655518 33.983999-57.891502L853.664032 385.785413C853.664032 361.528963 840.591295 339.273077 819.658544 327.894935zM469.379808 702.915168c-23.580045 0-42.698474-19.110243-42.698474-42.700521 0-23.568788 19.11843-42.699498 42.698474-42.699498s42.698474 19.129686 42.698474 42.699498C512.078283 683.805948 492.959853 702.915168 469.379808 702.915168zM597.474208 702.915168c-23.580045 0-42.698474-19.110243-42.698474-42.700521 0-23.568788 19.11843-42.699498 42.698474-42.699498 23.600511 0 42.698474 19.129686 42.698474 42.699498C640.172683 683.805948 621.075743 702.915168 597.474208 702.915168zM682.536536 468.51665l-42.218544 108.092857c-4.879124 12.878309-12.237719 19.567661-21.766746 19.567661L448.802144 596.177168c-9.986445 0-23.100114-4.91801-27.103288-21.35947l-37.735439-170.797991-21.349237 0c0 0-21.307282-0.667196-21.307282-21.360494 0-20.672832 21.307282-21.340027 21.307282-21.340027L384.817877 361.319186c10.1952 0 20.87033 7.127328 24.454972 21.360494l8.422833 43.157939c3.564175 14.211676 8.463766 20.880563 20.014846 20.880563l223.852324 0C675.74076 446.719204 684.746878 454.741925 682.536536 468.51665z" p-id="2648" fill="#1296db"></path></svg>